<svg xmlns="http://www.w3.org/2000/svg" width="24" height="25" viewBox="0 0 24 25" fill="none">
  <path d="M5.65188 2.23328C3.6289 2.23328 2 3.86217 2 5.88515V18.5814C2 20.6044 3.6289 22.2333 5.65188 22.2333H12.5331V14.4145H10.4656V11.5995H12.5331V9.19452C12.5331 7.30503 13.7547 5.57015 16.5688 5.57015C17.7081 5.57015 18.5506 5.67953 18.5506 5.67953L18.4844 8.30828C18.4844 8.30828 17.6251 8.30016 16.6875 8.30016C15.6727 8.30016 15.51 8.76772 15.51 9.54392V11.5995H18.565L18.4319 14.4145H15.51V22.2333H18.3481C20.3711 22.2333 22 20.6044 22 18.5814V5.88517C22 3.86219 20.3711 2.2333 18.3481 2.2333H5.65186L5.65188 2.23328Z" fill="#2997F9"/>
</svg>