<svg xmlns="http://www.w3.org/2000/svg" width="24" height="25" viewBox="0 0 24 25" fill="none">
  <path d="M12 2.48328C14.717 2.48328 15.056 2.49328 16.122 2.54328C17.187 2.59328 17.912 2.76028 18.55 3.00828C19.21 3.26228 19.766 3.60628 20.322 4.16128C20.8305 4.66117 21.224 5.26587 21.475 5.93328C21.722 6.57028 21.89 7.29628 21.94 8.36128C21.987 9.42728 22 9.76628 22 12.4833C22 15.2003 21.99 15.5393 21.94 16.6053C21.89 17.6703 21.722 18.3953 21.475 19.0333C21.2247 19.7011 20.8311 20.3059 20.322 20.8053C19.822 21.3136 19.2173 21.707 18.55 21.9583C17.913 22.2053 17.187 22.3733 16.122 22.4233C15.056 22.4703 14.717 22.4833 12 22.4833C9.283 22.4833 8.944 22.4733 7.878 22.4233C6.813 22.3733 6.088 22.2053 5.45 21.9583C4.78233 21.7078 4.17753 21.3142 3.678 20.8053C3.16941 20.3055 2.77593 19.7007 2.525 19.0333C2.277 18.3963 2.11 17.6703 2.06 16.6053C2.013 15.5393 2 15.2003 2 12.4833C2 9.76628 2.01 9.42728 2.06 8.36128C2.11 7.29528 2.277 6.57128 2.525 5.93328C2.77524 5.26546 3.1688 4.6606 3.678 4.16128C4.17767 3.65251 4.78243 3.25901 5.45 3.00828C6.088 2.76028 6.812 2.59328 7.878 2.54328C8.944 2.49628 9.283 2.48328 12 2.48328ZM12 7.48328C10.6739 7.48328 9.40215 8.01006 8.46447 8.94774C7.52678 9.88542 7 11.1572 7 12.4833C7 13.8094 7.52678 15.0811 8.46447 16.0188C9.40215 16.9565 10.6739 17.4833 12 17.4833C13.3261 17.4833 14.5979 16.9565 15.5355 16.0188C16.4732 15.0811 17 13.8094 17 12.4833C17 11.1572 16.4732 9.88542 15.5355 8.94774C14.5979 8.01006 13.3261 7.48328 12 7.48328ZM18.5 7.23328C18.5 6.90176 18.3683 6.58381 18.1339 6.34939C17.8995 6.11497 17.5815 5.98328 17.25 5.98328C16.9185 5.98328 16.6005 6.11497 16.3661 6.34939C16.1317 6.58381 16 6.90176 16 7.23328C16 7.5648 16.1317 7.88274 16.3661 8.11716C16.6005 8.35158 16.9185 8.48328 17.25 8.48328C17.5815 8.48328 17.8995 8.35158 18.1339 8.11716C18.3683 7.88274 18.5 7.5648 18.5 7.23328ZM12 9.48328C12.7956 9.48328 13.5587 9.79935 14.1213 10.362C14.6839 10.9246 15 11.6876 15 12.4833C15 13.2789 14.6839 14.042 14.1213 14.6046C13.5587 15.1672 12.7956 15.4833 12 15.4833C11.2044 15.4833 10.4413 15.1672 9.87868 14.6046C9.31607 14.042 9 13.2789 9 12.4833C9 11.6876 9.31607 10.9246 9.87868 10.362C10.4413 9.79935 11.2044 9.48328 12 9.48328Z" fill="#2997F9"/>
</svg>