<svg xmlns="http://www.w3.org/2000/svg" width="24" height="25" viewBox="0 0 24 25" fill="none">
  <path d="M19.7778 2.23328C20.3671 2.23328 20.9324 2.4674 21.3491 2.88415C21.7659 3.3009 22 3.86613 22 4.4555V20.0111C22 20.6004 21.7659 21.1657 21.3491 21.5824C20.9324 21.9992 20.3671 22.2333 19.7778 22.2333H4.22222C3.63285 22.2333 3.06762 21.9992 2.65087 21.5824C2.23413 21.1657 2 20.6004 2 20.0111V4.4555C2 3.86613 2.23413 3.3009 2.65087 2.88415C3.06762 2.4674 3.63285 2.23328 4.22222 2.23328H19.7778ZM19.2222 19.4555V13.5666C19.2222 12.6059 18.8406 11.6846 18.1613 11.0053C17.482 10.326 16.5607 9.94439 15.6 9.94439C14.6556 9.94439 13.5556 10.5222 13.0222 11.3888V10.1555H9.92222V19.4555H13.0222V13.9777C13.0222 13.1222 13.7111 12.4222 14.5667 12.4222C14.9792 12.4222 15.3749 12.5861 15.6666 12.8778C15.9583 13.1695 16.1222 13.5652 16.1222 13.9777V19.4555H19.2222ZM6.31111 8.41106C6.80618 8.41106 7.28098 8.21439 7.63104 7.86432C7.98111 7.51425 8.17778 7.03946 8.17778 6.54439C8.17778 5.51105 7.34444 4.66661 6.31111 4.66661C5.81309 4.66661 5.33547 4.86445 4.98332 5.2166C4.63117 5.56875 4.43333 6.04637 4.43333 6.54439C4.43333 7.57772 5.27778 8.41106 6.31111 8.41106ZM7.85556 19.4555V10.1555H4.77778V19.4555H7.85556Z" fill="#2997F9"/>
</svg>