<svg width="111" height="24" viewBox="0 0 111 24" fill="none" xmlns="http://www.w3.org/2000/svg">
<g id="Group 27340">
<g id="Group">
<path id="Vector" d="M11.522 11.6945L21.8064 0.675354H16.3372L5.41465 12.1488V0.675354H0.5V23.4903H5.41465V18.1112L8.28579 15.1314L15.1251 23.4903H20.8961L12.2177 12.5705L11.522 11.6936V11.6945Z" fill="white"/>
<path id="Vector_2" d="M37.656 10.8149C36.1271 8.38965 33.3219 6.88953 29.9018 6.88953C26.2467 6.88953 23.2789 8.60422 21.8317 11.3212C21.2066 12.485 20.8657 13.8365 20.8657 15.3125C20.8657 20.2374 24.6797 23.7355 29.9018 23.7355C35.1239 23.7355 38.909 20.2374 38.909 15.3125C38.909 13.6155 38.4585 12.0866 37.656 10.8149ZM29.9018 19.8426C27.5201 19.8426 25.6875 18.14 25.6875 15.3125C25.6875 12.8807 27.0399 11.2812 28.9339 10.8818C29.2432 10.814 29.5674 10.7806 29.9018 10.7806C30.1368 10.7806 30.3625 10.7954 30.5845 10.8316C32.6178 11.1252 34.0845 12.7609 34.0845 15.3125C34.0845 18.14 32.2843 19.8426 29.9027 19.8426H29.9018Z" fill="white"/>
<path id="Vector_3" d="M46.8458 7.13275H42.0835V23.4911H46.8458V7.13275Z" fill="white"/>
<path id="Vector_4" d="M61.2584 6.88953C59.0291 6.88953 57.1054 7.6512 55.8236 9.04822V7.13289H51.2749V23.4912H56.0363V15.4026C56.0363 14.2137 56.2927 13.2764 56.7487 12.5807C57.4398 11.5079 58.5916 10.9961 59.9766 10.9961C61.8482 10.9961 63.0205 11.9556 63.2583 14.0223C63.2889 14.2805 63.3038 14.5611 63.3038 14.8564V23.4903H65.9269L68.0689 20.5161V14.1282C68.0689 9.13925 65.1364 6.88953 61.2584 6.88953Z" fill="white"/>
</g>
<g id="Group_2">
<path id="Vector_5" d="M92.8243 0.597412L69.4604 23.4913H76.7326L78.8671 20.4567L90.9564 3.25584L92.8243 0.597412Z" fill="white"/>
<path id="Vector_6" d="M85.9377 0.597412L85.1909 1.63589L73.4657 17.9246L69.4604 23.4913L92.8243 0.597412H85.9377Z" fill="white"/>
<path id="Vector_7" d="M90.5113 19.4933L90.2094 19.066C89.9577 18.7093 89.5481 18.4976 89.1134 18.4976H83.6172C83.4138 18.4976 83.2559 18.6183 83.1807 18.779L93.3397 23.4912L90.5113 19.4933Z" fill="white"/>
<path id="Vector_8" d="M83.1804 18.7792C83.1135 18.9222 83.1126 19.0968 83.212 19.2492L84.3406 20.9667H84.3433L86.0032 23.4913H93.3404L83.1813 18.7792H83.1804Z" fill="white"/>
<path id="Vector_9" d="M79.8773 4.83484L78.1375 2.28045L76.9913 0.598267H69.813L79.7649 5.49434C79.96 5.34851 80.0333 5.06427 79.8782 4.83484H79.8773Z" fill="white"/>
<path id="Vector_10" d="M69.8125 0.597424L72.875 5.01234C72.888 5.02999 72.9001 5.04486 72.9131 5.0625C73.1667 5.39411 73.5596 5.5901 73.9794 5.5901H79.4783C79.5907 5.5901 79.6864 5.55109 79.7653 5.49257L69.8134 0.596497L69.8125 0.597424Z" fill="white"/>
</g>
<path id="Vector_11" d="M102.923 1.47176H100.989V6.54339H99.6823V1.47176H97.7749V0.505737H102.923V1.47176ZM105.365 0.505737L106.988 4.86627L108.605 0.505737H110.315V6.54339H108.995V4.86627L109.14 2.00844L107.431 6.54339H106.54L104.837 2.01515L104.969 4.86627V6.54339H103.669V0.505737H105.365Z" fill="white"/>
</g>
</svg>
