<svg xmlns="http://www.w3.org/2000/svg" width="22" height="22" viewBox="0 0 22 22" fill="none">
  <path d="M11 21.2333C4.92265 21.2333 0 16.5271 0 10.7333C0 4.93949 4.92265 0.233276 11 0.233276H19.2449C20.7643 0.233276 22 1.41971 22 2.86322V10.753C22 16.5271 17.0773 21.2333 11 21.2333Z" fill="#2997F9"/>
  <path d="M10.9998 15.9932C13.0459 15.9932 14.8286 14.9254 15.7604 13.3632C14.8083 11.8011 13.0256 10.753 10.9998 10.753C8.95381 10.753 7.17112 11.8208 6.23926 13.383C7.19138 14.9451 8.97406 15.9932 10.9998 15.9932ZM13.1472 7.54966C13.1472 8.69655 12.1748 9.62593 10.9796 9.62593C9.78438 9.62593 8.812 8.69655 8.812 7.54966C8.812 6.40277 9.78438 5.47339 10.9796 5.47339C12.1748 5.47339 13.1472 6.40277 13.1472 7.54966Z" fill="black"/>
</svg>