<svg xmlns="http://www.w3.org/2000/svg" width="25" height="25" viewBox="0 0 25 25" fill="none">
  <path fill-rule="evenodd" clip-rule="evenodd" d="M6.97528 2.48328C4.76307 2.48328 2.96973 4.27662 2.96973 6.48883V18.5055C2.96973 20.7177 4.76307 22.511 6.97528 22.511H18.9919C21.2041 22.511 22.9975 20.7177 22.9975 18.5055V6.48883C22.9975 4.27662 21.2041 2.48328 18.9919 2.48328H6.97528ZM19.2035 6.49109H17.0539L13.4696 10.538L10.4087 6.49109H5.97388L11.2545 13.4072L6.25427 19.1551H8.40391L12.2826 14.725L15.6706 19.1551H19.998L14.4837 11.8651L19.2035 6.49109ZM17.4932 17.8934H16.3015L8.50205 7.70609H9.78249L17.4932 17.8934Z" fill="#2997F9"/>
</svg>