<svg xmlns="http://www.w3.org/2000/svg" width="24" height="25" viewBox="0 0 24 25" fill="none">
  <path d="M23.4785 5.43177C23.2588 4.05736 21.9937 2.85628 20.5936 2.69694C14.8798 2.07854 9.11537 2.07872 3.40169 2.69749C2.00658 2.85628 0.741483 4.05714 0.520685 5.43677C-0.173824 9.94324 -0.17356 14.5285 0.521467 19.0349C0.741372 20.4093 2.00658 21.6102 3.40638 21.7694C6.26033 22.0786 9.1291 22.2334 12 22.2333C14.8709 22.2334 17.7396 22.0786 20.5936 21.7694L20.5981 21.7689C21.9934 21.6104 23.2587 20.4094 23.4794 19.0296C24.1738 14.5232 24.1735 9.93809 23.4785 5.43177ZM16.0735 12.9723L10.7073 16.5254C10.5726 16.6146 10.4161 16.6658 10.2544 16.6735C10.0927 16.6813 9.93193 16.6453 9.78921 16.5695C9.6465 16.4936 9.52719 16.3807 9.444 16.2428C9.36081 16.1049 9.31687 15.9471 9.31685 15.7864V8.68004C9.31686 8.51925 9.3608 8.36148 9.44399 8.22355C9.52718 8.08563 9.64651 7.97271 9.78924 7.89685C9.93197 7.82099 10.0928 7.78502 10.2545 7.7928C10.4162 7.80057 10.5727 7.85178 10.7074 7.94098L16.0736 11.4941C16.1961 11.5753 16.2965 11.6852 16.366 11.8141C16.4355 11.943 16.4718 12.087 16.4718 12.2332C16.4718 12.3794 16.4355 12.5234 16.366 12.6523C16.2965 12.7812 16.1961 12.8911 16.0736 12.9723H16.0735Z" fill="#2997F9"/>
</svg>